<svg width="968" height="688" viewBox="0 0 968 688" fill="none" xmlns="http://www.w3.org/2000/svg">
<rect x="16" y="16" width="468" height="328" fill="#E3FCF7"/>
<path d="M105.399 145.838C102.071 141.889 99.2055 137.879 98.6201 137.046C98.5585 136.985 98.466 136.985 98.4044 137.046C97.8189 137.879 94.9532 141.889 91.6254 145.838C63.0611 182.268 96.1242 206.853 96.1242 206.853L96.4015 207.038C96.648 210.832 97.2643 216.292 97.2643 216.292H98.4968H99.7294C99.7294 216.292 100.346 210.863 100.592 207.038L100.869 206.822C100.9 206.853 133.963 182.268 105.399 145.838ZM98.4968 206.298C98.4968 206.298 97.0178 205.033 96.6172 204.385V204.324L98.4044 164.654C98.4044 164.531 98.5893 164.531 98.5893 164.654L100.376 204.324V204.385C99.9759 205.033 98.4968 206.298 98.4968 206.298Z" fill="#001E2B"/>
<path d="M160.374 198.203L146.596 164.552L146.566 164.459H135.846V166.721H137.576C138.101 166.721 138.595 166.938 138.966 167.31C139.337 167.682 139.522 168.178 139.522 168.704L139.213 202.572C139.213 203.625 138.348 204.493 137.298 204.524L135.537 204.555V206.786H145.979V204.555L144.897 204.524C143.847 204.493 142.982 203.625 142.982 202.572V170.656L157.996 206.786C158.212 207.313 158.706 207.653 159.262 207.653C159.818 207.653 160.312 207.313 160.529 206.786L175.202 171.462L175.418 202.572C175.418 203.656 174.554 204.524 173.472 204.555H172.36V206.786H184.593V204.555H182.925C181.875 204.555 181.01 203.656 180.979 202.603L180.886 168.735C180.886 167.651 181.751 166.783 182.802 166.752L184.593 166.721V164.459H174.152L160.374 198.203Z" fill="#001E2B"/>
<path d="M256.44 203.965C256.099 203.624 255.913 203.158 255.913 202.6V185.963C255.913 182.797 254.984 180.313 253.126 178.544C251.298 176.775 248.759 175.875 245.599 175.875C241.17 175.875 237.671 177.675 235.224 181.213C235.193 181.276 235.1 181.307 235.007 181.307C234.914 181.307 234.852 181.245 234.852 181.151L233.706 176.713H231.786L226.861 179.537V181.089H228.131C228.72 181.089 229.215 181.245 229.556 181.555C229.897 181.865 230.082 182.331 230.082 182.983V202.568C230.082 203.127 229.897 203.593 229.556 203.934C229.215 204.276 228.751 204.462 228.193 204.462H226.954V206.728H238.29V204.462H237.051C236.494 204.462 236.029 204.276 235.688 203.934C235.348 203.593 235.162 203.127 235.162 202.568V189.594C235.162 187.949 235.534 186.304 236.215 184.69C236.927 183.107 237.98 181.772 239.374 180.748C240.768 179.724 242.44 179.227 244.361 179.227C246.529 179.227 248.17 179.91 249.192 181.276C250.214 182.641 250.741 184.411 250.741 186.521V202.537C250.741 203.096 250.555 203.562 250.214 203.903C249.874 204.245 249.409 204.431 248.852 204.431H247.613V206.697H258.948V204.431H257.71C257.245 204.493 256.811 204.307 256.44 203.965Z" fill="#001E2B"/>
<path d="M360.007 166.993C356.874 165.324 353.371 164.459 349.593 164.459H334.848V166.715H336.292C336.844 166.715 337.336 166.931 337.828 167.425C338.288 167.889 338.534 168.414 338.534 168.97V202.217C338.534 202.773 338.288 203.298 337.828 203.762C337.367 204.225 336.844 204.472 336.292 204.472H334.848V206.728H349.593C353.371 206.728 356.874 205.863 360.007 204.194C363.14 202.526 365.69 200.054 367.533 196.902C369.376 193.751 370.329 189.95 370.329 185.624C370.329 181.299 369.376 177.529 367.533 174.347C365.659 171.133 363.14 168.692 360.007 166.993ZM364.4 185.563C364.4 189.518 363.693 192.855 362.311 195.543C360.929 198.231 359.085 200.239 356.812 201.537C354.539 202.835 352.02 203.484 349.317 203.484H346.337C345.784 203.484 345.292 203.267 344.801 202.773C344.34 202.309 344.094 201.784 344.094 201.228V169.866C344.094 169.31 344.309 168.816 344.801 168.321C345.262 167.858 345.784 167.611 346.337 167.611H349.317C352.02 167.611 354.539 168.26 356.812 169.557C359.085 170.855 360.929 172.863 362.311 175.552C363.693 178.271 364.4 181.639 364.4 185.563Z" fill="#001E2B"/>
<path d="M405.184 187.818C403.821 186.242 401.189 184.914 398.092 184.203C402.366 182.071 404.564 179.074 404.564 175.212C404.564 173.111 404.007 171.226 402.892 169.619C401.777 168.012 400.198 166.715 398.185 165.819C396.172 164.923 393.819 164.459 391.155 164.459H374.464V166.715H375.795C376.353 166.715 376.848 166.931 377.344 167.425C377.808 167.889 378.056 168.414 378.056 168.97V202.217C378.056 202.773 377.808 203.298 377.344 203.762C376.879 204.225 376.353 204.472 375.795 204.472H374.34V206.728H392.456C395.212 206.728 397.782 206.264 400.105 205.337C402.428 204.41 404.286 203.051 405.617 201.259C406.98 199.467 407.661 197.273 407.661 194.739C407.63 192.02 406.825 189.703 405.184 187.818ZM384.404 202.804C383.94 202.34 383.692 201.815 383.692 201.259V186.335H392.301C395.336 186.335 397.658 187.108 399.269 188.652C400.879 190.197 401.684 192.206 401.684 194.678C401.684 196.161 401.313 197.613 400.631 198.942C399.919 200.301 398.866 201.382 397.442 202.217C396.048 203.051 394.314 203.484 392.301 203.484H385.953C385.395 203.484 384.9 203.267 384.404 202.804ZM383.723 183.153V169.897C383.723 169.341 383.94 168.847 384.435 168.352C384.9 167.889 385.426 167.642 385.984 167.642H390.071C393.013 167.642 395.181 168.383 396.544 169.805C397.906 171.257 398.588 173.111 398.588 175.397C398.588 177.745 397.937 179.63 396.668 181.052C395.398 182.442 393.478 183.153 390.939 183.153H383.723Z" fill="#001E2B"/>
<path d="M213.286 177.845C210.92 176.552 208.277 175.875 205.419 175.875C202.561 175.875 199.887 176.521 197.551 177.845C195.185 179.139 193.311 181.017 191.928 183.388C190.545 185.759 189.838 188.531 189.838 191.61C189.838 194.689 190.545 197.46 191.928 199.831C193.311 202.202 195.185 204.081 197.551 205.374C199.918 206.667 202.561 207.345 205.419 207.345C208.277 207.345 210.95 206.698 213.286 205.374C215.652 204.081 217.527 202.202 218.91 199.831C220.293 197.46 220.999 194.689 220.999 191.61C220.999 188.531 220.293 185.759 218.91 183.388C217.527 181.017 215.652 179.139 213.286 177.845ZM215.56 191.61C215.56 195.397 214.638 198.477 212.794 200.694C210.981 202.911 208.492 204.05 205.419 204.05C202.346 204.05 199.856 202.911 198.043 200.694C196.199 198.477 195.277 195.397 195.277 191.61C195.277 187.822 196.199 184.743 198.043 182.526C199.856 180.309 202.346 179.17 205.419 179.17C208.492 179.17 210.981 180.309 212.794 182.526C214.638 184.743 215.56 187.822 215.56 191.61Z" fill="#001E2B"/>
<path d="M322.198 177.845C319.832 176.552 317.189 175.875 314.331 175.875C311.473 175.875 308.799 176.521 306.464 177.845C304.097 179.139 302.223 181.017 300.84 183.388C299.457 185.759 298.75 188.531 298.75 191.61C298.75 194.689 299.457 197.46 300.84 199.831C302.223 202.202 304.097 204.081 306.464 205.374C308.83 206.667 311.473 207.345 314.331 207.345C317.189 207.345 319.862 206.698 322.198 205.374C324.564 204.081 326.439 202.202 327.822 199.831C329.205 197.46 329.912 194.689 329.912 191.61C329.912 188.531 329.205 185.759 327.822 183.388C326.439 181.017 324.534 179.139 322.198 177.845ZM324.472 191.61C324.472 195.397 323.55 198.477 321.706 200.694C319.893 202.911 317.404 204.05 314.331 204.05C311.258 204.05 308.768 202.911 306.955 200.694C305.111 198.477 304.189 195.397 304.189 191.61C304.189 187.791 305.111 184.743 306.955 182.526C308.768 180.309 311.258 179.17 314.331 179.17C317.404 179.17 319.893 180.309 321.706 182.526C323.519 184.743 324.472 187.822 324.472 191.61Z" fill="#001E2B"/>
<path d="M278.275 175.875C275.799 175.875 273.539 176.401 271.497 177.452C269.454 178.504 267.845 179.927 266.699 181.752C265.554 183.546 264.966 185.557 264.966 187.692C264.966 189.61 265.4 191.373 266.297 192.951C267.164 194.466 268.34 195.735 269.825 196.786L265.399 202.788C264.842 203.53 264.78 204.52 265.183 205.324C265.616 206.16 266.421 206.654 267.349 206.654H268.618C267.38 207.49 266.39 208.48 265.709 209.655C264.904 210.985 264.502 212.377 264.502 213.8C264.502 216.461 265.678 218.657 267.999 220.297C270.29 221.936 273.508 222.771 277.563 222.771C280.379 222.771 283.072 222.307 285.517 221.41C287.993 220.513 290.005 219.183 291.49 217.451C293.007 215.718 293.78 213.615 293.78 211.202C293.78 208.665 292.852 206.871 290.685 205.139C288.828 203.685 285.919 202.911 282.298 202.911H269.918C269.887 202.911 269.856 202.881 269.856 202.881C269.856 202.881 269.825 202.819 269.856 202.788L273.075 198.457C273.942 198.859 274.746 199.106 275.458 199.261C276.201 199.416 277.037 199.478 277.965 199.478C280.565 199.478 282.917 198.952 284.96 197.9C287.002 196.848 288.643 195.425 289.819 193.6C290.995 191.806 291.583 189.795 291.583 187.661C291.583 185.372 290.469 181.195 287.436 179.061C287.436 179.03 287.467 179.03 287.467 179.03L294.121 179.772V176.71H283.474C281.803 176.184 280.07 175.875 278.275 175.875ZM281.989 195.24C280.812 195.858 279.544 196.199 278.275 196.199C276.201 196.199 274.375 195.456 272.827 194.002C271.28 192.548 270.506 190.414 270.506 187.692C270.506 184.969 271.28 182.835 272.827 181.381C274.375 179.927 276.201 179.185 278.275 179.185C279.574 179.185 280.812 179.494 281.989 180.144C283.165 180.762 284.124 181.721 284.898 182.99C285.641 184.258 286.043 185.836 286.043 187.692C286.043 189.579 285.672 191.156 284.898 192.394C284.155 193.662 283.165 194.621 281.989 195.24ZM273.601 206.624H281.989C284.31 206.624 285.795 207.088 286.786 208.077C287.776 209.067 288.271 210.398 288.271 211.944C288.271 214.202 287.374 216.059 285.579 217.451C283.784 218.843 281.37 219.554 278.398 219.554C275.799 219.554 273.632 218.966 272.054 217.853C270.475 216.739 269.671 215.038 269.671 212.872C269.671 211.511 270.042 210.243 270.785 209.129C271.528 208.016 272.425 207.211 273.601 206.624Z" fill="#001E2B"/>
<path d="M413.936 206.211C413.324 205.877 412.865 205.391 412.497 204.815C412.16 204.207 411.977 203.569 411.977 202.871C411.977 202.173 412.16 201.505 412.497 200.928C412.834 200.32 413.324 199.865 413.936 199.531C414.548 199.197 415.222 199.014 415.987 199.014C416.753 199.014 417.426 199.197 418.039 199.531C418.651 199.865 419.11 200.351 419.478 200.928C419.815 201.535 419.998 202.173 419.998 202.871C419.998 203.569 419.815 204.238 419.478 204.815C419.141 205.422 418.651 205.877 418.039 206.211C417.426 206.545 416.753 206.728 415.987 206.728C415.253 206.728 414.548 206.576 413.936 206.211ZM417.702 205.786C418.223 205.513 418.59 205.088 418.896 204.602C419.172 204.086 419.325 203.509 419.325 202.871C419.325 202.233 419.172 201.656 418.896 201.14C418.621 200.624 418.223 200.229 417.702 199.956C417.182 199.682 416.63 199.531 415.987 199.531C415.344 199.531 414.793 199.682 414.273 199.956C413.752 200.229 413.385 200.654 413.079 201.14C412.803 201.656 412.65 202.233 412.65 202.871C412.65 203.509 412.803 204.086 413.079 204.602C413.354 205.118 413.752 205.513 414.273 205.786C414.793 206.06 415.344 206.211 415.987 206.211C416.63 206.211 417.212 206.06 417.702 205.786ZM414.334 204.723V204.45L414.395 204.42H414.579C414.64 204.42 414.702 204.389 414.732 204.359C414.793 204.298 414.793 204.268 414.793 204.207V201.383C414.793 201.322 414.763 201.262 414.732 201.231C414.671 201.17 414.64 201.17 414.579 201.17H414.395L414.334 201.14V200.867L414.395 200.836H415.987C416.447 200.836 416.784 200.928 417.059 201.14C417.335 201.353 417.457 201.626 417.457 201.99C417.457 202.264 417.365 202.537 417.151 202.719C416.937 202.932 416.692 203.053 416.385 203.084L416.753 203.205L417.457 204.329C417.518 204.42 417.58 204.45 417.671 204.45H417.855L417.886 204.48V204.754L417.855 204.784H416.906L416.845 204.754L415.865 203.114H415.62V204.207C415.62 204.268 415.651 204.329 415.681 204.359C415.743 204.42 415.773 204.42 415.834 204.42H416.018L416.079 204.45V204.723L416.018 204.754H414.395L414.334 204.723ZM415.896 202.719C416.141 202.719 416.355 202.658 416.477 202.507C416.6 202.385 416.692 202.173 416.692 201.93C416.692 201.687 416.63 201.504 416.508 201.353C416.385 201.201 416.202 201.14 415.987 201.14H415.865C415.804 201.14 415.743 201.17 415.712 201.201C415.651 201.262 415.651 201.292 415.651 201.353V202.719H415.896Z" fill="#001E2B"/>
<rect x="484" y="16" width="468" height="328" fill="#FAFBFC"/>
<path d="M573.399 145.838C570.071 141.889 567.206 137.879 566.62 137.046C566.558 136.985 566.466 136.985 566.404 137.046C565.819 137.879 562.953 141.889 559.625 145.838C531.061 182.268 564.124 206.853 564.124 206.853L564.401 207.038C564.648 210.832 565.264 216.292 565.264 216.292H566.497H567.729C567.729 216.292 568.346 210.863 568.592 207.038L568.869 206.822C568.9 206.853 601.963 182.268 573.399 145.838ZM566.497 206.329C566.497 206.329 565.018 205.064 564.617 204.416V204.354L566.404 164.685C566.404 164.562 566.589 164.562 566.589 164.685L568.376 204.354V204.416C567.976 205.064 566.497 206.329 566.497 206.329Z" fill="#00684A"/>
<path d="M628.374 197.962L614.596 164.552L614.566 164.459H603.846V166.705H605.576C606.101 166.705 606.595 166.92 606.966 167.29C607.337 167.659 607.522 168.151 607.522 168.674L607.213 202.3C607.213 203.346 606.348 204.207 605.298 204.238L603.537 204.268V206.483H613.979V204.268L612.897 204.238C611.847 204.207 610.982 203.346 610.982 202.3V170.612L625.996 206.483C626.212 207.006 626.706 207.345 627.262 207.345C627.818 207.345 628.312 207.006 628.529 206.483L643.202 171.412L643.418 202.3C643.418 203.376 642.554 204.238 641.472 204.268H640.36V206.483H652.593V204.268H650.925C649.875 204.268 649.01 203.376 648.979 202.33L648.886 168.705C648.886 167.628 649.751 166.767 650.802 166.736L652.593 166.705V164.459H642.152L628.374 197.962Z" fill="#00684A"/>
<path d="M724.44 203.684C724.099 203.346 723.913 202.885 723.913 202.332V185.862C723.913 182.727 722.984 180.269 721.126 178.517C719.298 176.766 716.759 175.875 713.599 175.875C709.17 175.875 705.671 177.657 703.224 181.16C703.193 181.222 703.1 181.252 703.007 181.252C702.914 181.252 702.852 181.191 702.852 181.099L701.706 176.704H699.786L694.861 179.501V181.037H696.131C696.72 181.037 697.215 181.191 697.556 181.498C697.897 181.805 698.082 182.266 698.082 182.912V202.302C698.082 202.855 697.897 203.316 697.556 203.654C697.215 203.992 696.751 204.176 696.193 204.176H694.954V206.419H706.29V204.176H705.051C704.494 204.176 704.029 203.992 703.688 203.654C703.348 203.316 703.162 202.855 703.162 202.302V189.457C703.162 187.828 703.534 186.2 704.215 184.602C704.927 183.035 705.98 181.713 707.374 180.699C708.768 179.685 710.44 179.193 712.361 179.193C714.529 179.193 716.17 179.869 717.192 181.222C718.214 182.574 718.741 184.325 718.741 186.415V202.271C718.741 202.824 718.555 203.285 718.214 203.623C717.874 203.961 717.409 204.145 716.852 204.145H715.613V206.389H726.948V204.145H725.71C725.245 204.207 724.811 204.022 724.44 203.684Z" fill="#00684A"/>
<path d="M828.007 166.993C824.874 165.324 821.371 164.459 817.593 164.459H802.848V166.715H804.292C804.844 166.715 805.336 166.931 805.828 167.425C806.288 167.889 806.534 168.414 806.534 168.97V202.217C806.534 202.773 806.288 203.298 805.828 203.762C805.367 204.225 804.844 204.472 804.292 204.472H802.848V206.728H817.593C821.371 206.728 824.874 205.863 828.007 204.194C831.14 202.526 833.69 200.054 835.533 196.902C837.376 193.751 838.329 189.95 838.329 185.624C838.329 181.299 837.376 177.529 835.533 174.347C833.659 171.133 831.14 168.661 828.007 166.993ZM832.4 185.563C832.4 189.518 831.693 192.855 830.311 195.543C828.929 198.231 827.085 200.239 824.812 201.537C822.539 202.835 820.02 203.484 817.317 203.484H814.337C813.784 203.484 813.292 203.267 812.801 202.773C812.34 202.309 812.094 201.784 812.094 201.228V169.866C812.094 169.31 812.309 168.816 812.801 168.321C813.262 167.858 813.784 167.611 814.337 167.611H817.317C820.02 167.611 822.539 168.26 824.812 169.557C827.085 170.855 828.929 172.864 830.311 175.552C831.693 178.24 832.4 181.608 832.4 185.563Z" fill="#00684A"/>
<path d="M873.184 187.818C871.821 186.242 869.189 184.914 866.092 184.203C870.366 182.071 872.564 179.074 872.564 175.212C872.564 173.111 872.007 171.226 870.892 169.619C869.777 168.013 868.198 166.715 866.185 165.819C864.172 164.923 861.819 164.459 859.155 164.459H842.464V166.715H843.795C844.353 166.715 844.848 166.931 845.344 167.425C845.808 167.889 846.056 168.414 846.056 168.97V202.217C846.056 202.773 845.808 203.298 845.344 203.762C844.879 204.225 844.353 204.472 843.795 204.472H842.34V206.728H860.456C863.212 206.728 865.782 206.264 868.105 205.337C870.428 204.41 872.286 203.051 873.617 201.259C874.98 199.467 875.661 197.273 875.661 194.739C875.63 192.02 874.825 189.703 873.184 187.818ZM852.404 202.804C851.94 202.34 851.692 201.815 851.692 201.259V186.335H860.301C863.336 186.335 865.658 187.108 867.269 188.652C868.879 190.197 869.684 192.206 869.684 194.678C869.684 196.161 869.313 197.613 868.631 198.942C867.919 200.301 866.866 201.382 865.442 202.217C864.048 203.051 862.314 203.484 860.301 203.484H853.953C853.395 203.514 852.9 203.267 852.404 202.804ZM851.723 183.153V169.897C851.723 169.341 851.94 168.847 852.435 168.352C852.9 167.889 853.426 167.642 853.984 167.642H858.071C861.013 167.642 863.181 168.383 864.544 169.805C865.906 171.257 866.588 173.111 866.588 175.397C866.588 177.745 865.937 179.63 864.668 181.052C863.398 182.442 861.478 183.153 858.939 183.153H851.723Z" fill="#00684A"/>
<path d="M681.286 177.845C678.92 176.552 676.277 175.875 673.419 175.875C670.561 175.875 667.887 176.521 665.551 177.845C663.185 179.139 661.311 181.017 659.928 183.388C658.545 185.759 657.838 188.531 657.838 191.61C657.838 194.689 658.545 197.46 659.928 199.831C661.311 202.202 663.185 204.081 665.551 205.374C667.918 206.667 670.561 207.345 673.419 207.345C676.277 207.345 678.95 206.698 681.286 205.374C683.652 204.081 685.527 202.202 686.91 199.831C688.293 197.46 688.999 194.689 688.999 191.61C688.999 188.531 688.293 185.759 686.91 183.388C685.527 181.017 683.652 179.17 681.286 177.845ZM683.56 191.61C683.56 195.397 682.638 198.477 680.794 200.694C678.981 202.911 676.492 204.05 673.419 204.05C670.346 204.05 667.856 202.911 666.043 200.694C664.199 198.477 663.277 195.397 663.277 191.61C663.277 187.822 664.199 184.743 666.043 182.526C667.856 180.309 670.346 179.17 673.419 179.17C676.492 179.17 678.981 180.309 680.794 182.526C682.638 184.774 683.56 187.822 683.56 191.61Z" fill="#00684A"/>
<path d="M790.198 177.845C787.832 176.552 785.189 175.875 782.331 175.875C779.473 175.875 776.799 176.521 774.464 177.845C772.097 179.139 770.223 181.017 768.84 183.388C767.457 185.759 766.75 188.531 766.75 191.61C766.75 194.689 767.457 197.46 768.84 199.831C770.223 202.202 772.097 204.081 774.464 205.374C776.83 206.667 779.473 207.345 782.331 207.345C785.189 207.345 787.862 206.698 790.198 205.374C792.564 204.081 794.439 202.202 795.822 199.831C797.205 197.46 797.912 194.689 797.912 191.61C797.912 188.531 797.205 185.759 795.822 183.388C794.439 181.017 792.534 179.17 790.198 177.845ZM792.472 191.61C792.472 195.397 791.55 198.477 789.706 200.694C787.893 202.911 785.404 204.05 782.331 204.05C779.258 204.05 776.768 202.911 774.955 200.694C773.111 198.477 772.189 195.397 772.189 191.61C772.189 187.791 773.111 184.743 774.955 182.526C776.768 180.309 779.258 179.17 782.331 179.17C785.404 179.17 787.893 180.309 789.706 182.526C791.519 184.774 792.472 187.822 792.472 191.61Z" fill="#00684A"/>
<path d="M746.275 175.875C743.799 175.875 741.539 176.401 739.497 177.452C737.454 178.504 735.845 179.927 734.699 181.752C733.554 183.546 732.966 185.557 732.966 187.692C732.966 189.61 733.4 191.373 734.297 192.951C735.164 194.466 736.34 195.735 737.825 196.786L733.399 202.788C732.842 203.53 732.78 204.52 733.183 205.324C733.616 206.16 734.421 206.654 735.349 206.654H736.618C735.38 207.49 734.39 208.48 733.709 209.655C732.904 210.985 732.502 212.377 732.502 213.8C732.502 216.461 733.678 218.657 735.999 220.297C738.29 221.936 741.508 222.771 745.563 222.771C748.379 222.771 751.072 222.307 753.517 221.41C755.993 220.513 758.005 219.183 759.49 217.451C761.007 215.718 761.78 213.615 761.78 211.202C761.78 208.665 760.852 206.871 758.685 205.139C756.828 203.685 753.919 202.911 750.298 202.911H737.918C737.887 202.911 737.856 202.88 737.856 202.88C737.856 202.88 737.825 202.819 737.856 202.788L741.075 198.457C741.942 198.859 742.746 199.106 743.458 199.261C744.201 199.416 745.037 199.478 745.965 199.478C748.565 199.478 750.917 198.952 752.96 197.9C755.002 196.848 756.643 195.425 757.819 193.6C758.995 191.806 759.583 189.795 759.583 187.661C759.583 185.372 758.469 181.195 755.436 179.061C755.436 179.03 755.467 179.03 755.467 179.03L762.121 179.772V176.71H751.474C749.803 176.153 748.07 175.875 746.275 175.875ZM749.989 195.209C748.812 195.827 747.544 196.168 746.275 196.168C744.201 196.168 742.375 195.425 740.827 193.971C739.28 192.517 738.506 190.383 738.506 187.661C738.506 184.939 739.28 182.804 740.827 181.35C742.375 179.896 744.201 179.154 746.275 179.154C747.574 179.154 748.812 179.463 749.989 180.113C751.165 180.731 752.124 181.69 752.898 182.959C753.641 184.227 754.043 185.805 754.043 187.661C754.043 189.548 753.672 191.125 752.898 192.363C752.155 193.631 751.165 194.59 749.989 195.209ZM741.601 206.624H749.989C752.31 206.624 753.795 207.088 754.786 208.077C755.776 209.067 756.271 210.398 756.271 211.944C756.271 214.202 755.374 216.059 753.579 217.451C751.784 218.843 749.37 219.554 746.398 219.554C743.799 219.554 741.632 218.966 740.054 217.853C738.475 216.739 737.671 215.038 737.671 212.872C737.671 211.511 738.042 210.243 738.785 209.129C739.528 208.016 740.425 207.211 741.601 206.624Z" fill="#00684A"/>
<path d="M881.936 206.211C881.324 205.877 880.865 205.391 880.497 204.815C880.16 204.207 879.977 203.569 879.977 202.871C879.977 202.173 880.16 201.505 880.497 200.928C880.834 200.32 881.324 199.865 881.936 199.531C882.548 199.197 883.222 199.014 883.987 199.014C884.753 199.014 885.426 199.197 886.039 199.531C886.651 199.865 887.11 200.351 887.478 200.928C887.815 201.535 887.998 202.173 887.998 202.871C887.998 203.569 887.815 204.238 887.478 204.815C887.141 205.422 886.651 205.877 886.039 206.211C885.426 206.545 884.753 206.728 883.987 206.728C883.253 206.728 882.548 206.545 881.936 206.211ZM885.702 205.756C886.223 205.483 886.59 205.057 886.896 204.572C887.172 204.055 887.325 203.478 887.325 202.841C887.325 202.203 887.172 201.626 886.896 201.11C886.621 200.594 886.223 200.199 885.702 199.925C885.182 199.652 884.63 199.5 883.987 199.5C883.344 199.5 882.793 199.652 882.273 199.925C881.752 200.199 881.385 200.624 881.079 201.11C880.803 201.626 880.65 202.203 880.65 202.841C880.65 203.478 880.803 204.055 881.079 204.572C881.354 205.088 881.752 205.483 882.273 205.756C882.793 206.029 883.344 206.181 883.987 206.181C884.63 206.181 885.212 206.029 885.702 205.756ZM882.334 204.693V204.42L882.395 204.389H882.579C882.64 204.389 882.702 204.359 882.732 204.329C882.793 204.268 882.793 204.238 882.793 204.177V201.353C882.793 201.292 882.763 201.231 882.732 201.201C882.671 201.14 882.64 201.14 882.579 201.14H882.395L882.334 201.11V200.836L882.395 200.806H883.987C884.447 200.806 884.784 200.897 885.059 201.11C885.335 201.322 885.457 201.596 885.457 201.96C885.457 202.233 885.365 202.507 885.151 202.689C884.937 202.901 884.692 203.023 884.385 203.053L884.753 203.175L885.457 204.298C885.518 204.389 885.58 204.42 885.671 204.42H885.855L885.886 204.45V204.723L885.855 204.754H884.906L884.845 204.723L883.865 203.084H883.62V204.177C883.62 204.238 883.651 204.298 883.681 204.329C883.743 204.389 883.773 204.389 883.834 204.389H884.018L884.079 204.42V204.693L884.018 204.723H882.395L882.334 204.693ZM883.896 202.719C884.141 202.719 884.355 202.658 884.477 202.507C884.6 202.385 884.692 202.173 884.692 201.93C884.692 201.687 884.63 201.505 884.508 201.353C884.385 201.201 884.202 201.14 883.987 201.14H883.865C883.804 201.14 883.743 201.17 883.712 201.201C883.651 201.262 883.651 201.292 883.651 201.353V202.719H883.896Z" fill="#00684A"/>
<rect x="16" y="344" width="468" height="328" fill="#00684A"/>
<path d="M105.399 473.838C102.071 469.889 99.2055 465.879 98.6201 465.046C98.5585 464.985 98.466 464.985 98.4044 465.046C97.8189 465.879 94.9532 469.889 91.6254 473.838C63.0611 510.268 96.1242 534.853 96.1242 534.853L96.4015 535.038C96.648 538.832 97.2643 544.292 97.2643 544.292H98.4968H99.7294C99.7294 544.292 100.346 538.863 100.592 535.038L100.869 534.822C100.9 534.822 133.963 510.268 105.399 473.838ZM98.4968 534.298C98.4968 534.298 97.0178 533.033 96.6172 532.385V532.324L98.4044 492.654C98.4044 492.531 98.5893 492.531 98.5893 492.654L100.376 532.324V532.385C99.9759 533.033 98.4968 534.298 98.4968 534.298Z" fill="white"/>
<path d="M160.374 525.962L146.596 492.552L146.566 492.459H135.846V494.705H137.576C138.101 494.705 138.595 494.92 138.966 495.29C139.337 495.659 139.522 496.151 139.522 496.674L139.213 530.3C139.213 531.346 138.348 532.207 137.298 532.238L135.537 532.268V534.483H145.979V532.268L144.897 532.238C143.847 532.207 142.982 531.346 142.982 530.3V498.612L157.996 534.483C158.212 535.006 158.706 535.345 159.262 535.345C159.818 535.345 160.312 535.006 160.529 534.483L175.202 499.412L175.418 530.3C175.418 531.376 174.554 532.238 173.472 532.268H172.36V534.483H184.593V532.268H182.925C181.875 532.268 181.01 531.376 180.979 530.33L180.886 496.705C180.886 495.628 181.751 494.767 182.802 494.736L184.593 494.705V492.459H174.152L160.374 525.962Z" fill="white"/>
<path d="M256.44 531.937C256.099 531.596 255.913 531.131 255.913 530.573V513.952C255.913 510.79 254.984 508.309 253.126 506.541C251.298 504.774 248.759 503.875 245.599 503.875C241.17 503.875 237.671 505.673 235.224 509.208C235.193 509.27 235.1 509.301 235.007 509.301C234.914 509.301 234.852 509.239 234.852 509.146L233.706 504.712H231.786L226.861 507.534V509.084H228.131C228.72 509.084 229.215 509.239 229.556 509.549C229.897 509.859 230.082 510.324 230.082 510.976V530.542C230.082 531.1 229.897 531.565 229.556 531.906C229.215 532.247 228.751 532.433 228.193 532.433H226.954V534.697H238.29V532.433H237.051C236.494 532.433 236.029 532.247 235.688 531.906C235.348 531.565 235.162 531.1 235.162 530.542V517.642C235.162 515.999 235.534 514.355 236.215 512.743C236.927 511.162 237.98 509.828 239.374 508.805C240.768 507.782 242.44 507.286 244.361 507.286C246.529 507.286 248.17 507.968 249.192 509.332C250.214 510.697 250.741 512.464 250.741 514.573V530.573C250.741 531.131 250.555 531.596 250.214 531.937C249.874 532.278 249.409 532.464 248.852 532.464H247.613V534.728H258.948V532.464H257.71C257.245 532.464 256.811 532.309 256.44 531.937Z" fill="white"/>
<path d="M360.007 494.993C356.874 493.324 353.371 492.459 349.593 492.459H334.848V494.715H336.292C336.844 494.715 337.336 494.931 337.828 495.425C338.288 495.889 338.534 496.414 338.534 496.97V530.217C338.534 530.773 338.288 531.298 337.828 531.762C337.367 532.225 336.844 532.472 336.292 532.472H334.848V534.728H349.593C353.371 534.728 356.874 533.863 360.007 532.194C363.14 530.526 365.69 528.054 367.533 524.902C369.376 521.751 370.329 517.95 370.329 513.624C370.329 509.299 369.376 505.529 367.533 502.347C365.659 499.133 363.14 496.661 360.007 494.993ZM364.4 513.563C364.4 517.518 363.693 520.855 362.311 523.543C360.929 526.231 359.085 528.239 356.812 529.537C354.539 530.835 352.02 531.484 349.317 531.484H346.337C345.784 531.484 345.292 531.267 344.801 530.773C344.34 530.309 344.094 529.784 344.094 529.228V497.897C344.094 497.341 344.309 496.847 344.801 496.352C345.262 495.889 345.784 495.642 346.337 495.642H349.317C352.02 495.642 354.539 496.291 356.812 497.588C359.085 498.886 360.929 500.894 362.311 503.583C363.693 506.271 364.4 509.608 364.4 513.563Z" fill="white"/>
<path d="M405.184 515.818C403.821 514.242 401.189 512.914 398.092 512.203C402.366 510.071 404.564 507.074 404.564 503.212C404.564 501.111 404.007 499.226 402.892 497.619C401.777 496.013 400.198 494.715 398.185 493.819C396.172 492.923 393.819 492.459 391.155 492.459H374.464V494.715H375.795C376.353 494.715 376.848 494.931 377.344 495.425C377.808 495.889 378.056 496.414 378.056 496.97V530.217C378.056 530.773 377.808 531.298 377.344 531.762C376.879 532.225 376.353 532.472 375.795 532.472H374.34V534.728H392.456C395.212 534.728 397.782 534.264 400.105 533.337C402.428 532.41 404.286 531.051 405.617 529.259C406.98 527.467 407.661 525.273 407.661 522.739C407.63 520.02 406.825 517.734 405.184 515.818ZM384.404 530.804C383.94 530.34 383.692 529.815 383.692 529.259V514.335H392.301C395.336 514.335 397.658 515.108 399.269 516.652C400.879 518.197 401.684 520.206 401.684 522.678C401.684 524.161 401.313 525.613 400.631 526.942C399.919 528.301 398.866 529.382 397.442 530.217C396.048 531.051 394.314 531.484 392.301 531.484H385.953C385.395 531.514 384.9 531.298 384.404 530.804ZM383.723 511.153V497.897C383.723 497.341 383.94 496.847 384.435 496.352C384.9 495.889 385.426 495.642 385.984 495.642H390.071C393.013 495.642 395.181 496.383 396.544 497.805C397.906 499.257 398.588 501.111 398.588 503.397C398.588 505.745 397.937 507.63 396.668 509.052C395.398 510.442 393.478 511.153 390.939 511.153H383.723Z" fill="white"/>
<path d="M213.286 505.845C210.92 504.552 208.277 503.875 205.419 503.875C202.561 503.875 199.887 504.521 197.551 505.845C195.185 507.139 193.311 509.017 191.928 511.388C190.545 513.759 189.838 516.531 189.838 519.61C189.838 522.689 190.545 525.46 191.928 527.831C193.311 530.202 195.185 532.081 197.551 533.374C199.918 534.667 202.561 535.345 205.419 535.345C208.277 535.345 210.95 534.698 213.286 533.374C215.652 532.081 217.527 530.202 218.91 527.831C220.293 525.46 220.999 522.689 220.999 519.61C220.999 516.531 220.293 513.759 218.91 511.388C217.527 508.986 215.652 507.139 213.286 505.845ZM215.56 519.61C215.56 523.397 214.638 526.477 212.794 528.694C210.981 530.911 208.492 532.05 205.419 532.05C202.346 532.05 199.856 530.911 198.043 528.694C196.199 526.477 195.277 523.397 195.277 519.61C195.277 515.822 196.199 512.743 198.043 510.526C199.856 508.309 202.346 507.17 205.419 507.17C208.492 507.17 210.981 508.309 212.794 510.526C214.638 512.743 215.56 515.792 215.56 519.61Z" fill="white"/>
<path d="M322.198 505.845C319.832 504.552 317.189 503.875 314.331 503.875C311.473 503.875 308.799 504.521 306.464 505.845C304.097 507.139 302.223 509.017 300.84 511.388C299.457 513.759 298.75 516.531 298.75 519.61C298.75 522.689 299.457 525.46 300.84 527.831C302.223 530.202 304.097 532.081 306.464 533.374C308.83 534.667 311.473 535.345 314.331 535.345C317.189 535.345 319.862 534.698 322.198 533.374C324.564 532.081 326.439 530.202 327.822 527.831C329.205 525.46 329.912 522.689 329.912 519.61C329.912 516.531 329.205 513.759 327.822 511.388C326.439 508.986 324.534 507.139 322.198 505.845ZM324.472 519.61C324.472 523.397 323.55 526.477 321.706 528.694C319.893 530.911 317.404 532.05 314.331 532.05C311.258 532.05 308.768 530.911 306.955 528.694C305.111 526.477 304.189 523.397 304.189 519.61C304.189 515.792 305.111 512.743 306.955 510.526C308.768 508.309 311.258 507.17 314.331 507.17C317.404 507.17 319.893 508.309 321.706 510.526C323.519 512.743 324.472 515.792 324.472 519.61Z" fill="white"/>
<path d="M278.275 503.875C275.799 503.875 273.539 504.401 271.497 505.452C269.454 506.504 267.845 507.927 266.699 509.752C265.554 511.546 264.966 513.557 264.966 515.692C264.966 517.61 265.4 519.373 266.297 520.951C267.164 522.466 268.34 523.735 269.825 524.786L265.399 530.788C264.842 531.53 264.78 532.52 265.183 533.324C265.616 534.16 266.421 534.654 267.349 534.654H268.618C267.38 535.49 266.39 536.48 265.709 537.655C264.904 538.985 264.502 540.377 264.502 541.8C264.502 544.461 265.678 546.657 267.999 548.297C270.29 549.936 273.508 550.771 277.563 550.771C280.379 550.771 283.072 550.307 285.517 549.41C287.993 548.513 290.005 547.183 291.49 545.451C293.007 543.718 293.78 541.615 293.78 539.202C293.78 536.665 292.852 534.871 290.685 533.139C288.828 531.685 285.919 530.911 282.298 530.911H269.918C269.887 530.911 269.856 530.88 269.856 530.88C269.856 530.88 269.825 530.819 269.856 530.788L273.075 526.457C273.942 526.859 274.746 527.106 275.458 527.261C276.201 527.416 277.037 527.478 277.965 527.478C280.565 527.478 282.917 526.952 284.96 525.9C287.002 524.848 288.643 523.425 289.819 521.6C290.995 519.806 291.583 517.795 291.583 515.661C291.583 513.372 290.469 509.195 287.436 507.061C287.436 507.03 287.467 507.03 287.467 507.03L294.121 507.772V504.71H283.474C281.803 504.153 280.07 503.875 278.275 503.875ZM281.989 523.24C280.812 523.858 279.544 524.199 278.275 524.199C276.201 524.199 274.375 523.456 272.827 522.002C271.28 520.548 270.506 518.414 270.506 515.692C270.506 512.969 271.28 510.835 272.827 509.381C274.375 507.927 276.201 507.185 278.275 507.185C279.574 507.185 280.812 507.494 281.989 508.144C283.165 508.762 284.124 509.721 284.898 510.99C285.641 512.258 286.043 513.836 286.043 515.692C286.043 517.579 285.672 519.156 284.898 520.394C284.155 521.662 283.165 522.59 281.989 523.24ZM273.601 534.624H281.989C284.31 534.624 285.795 535.088 286.786 536.077C287.776 537.067 288.271 538.398 288.271 539.944C288.271 542.202 287.374 544.059 285.579 545.451C283.784 546.843 281.37 547.554 278.398 547.554C275.799 547.554 273.632 546.966 272.054 545.853C270.475 544.739 269.671 543.038 269.671 540.872C269.671 539.511 270.042 538.243 270.785 537.129C271.528 536.016 272.425 535.211 273.601 534.624Z" fill="white"/>
<path d="M413.936 534.211C413.324 533.877 412.865 533.392 412.497 532.815C412.16 532.207 411.977 531.569 411.977 530.871C411.977 530.173 412.16 529.505 412.497 528.928C412.834 528.32 413.324 527.865 413.936 527.531C414.548 527.197 415.222 527.014 415.987 527.014C416.753 527.014 417.426 527.197 418.039 527.531C418.651 527.865 419.11 528.351 419.478 528.928C419.815 529.535 419.998 530.173 419.998 530.871C419.998 531.569 419.815 532.238 419.478 532.815C419.141 533.422 418.651 533.877 418.039 534.211C417.426 534.545 416.753 534.728 415.987 534.728C415.253 534.728 414.548 534.545 413.936 534.211ZM417.702 533.756C418.223 533.483 418.59 533.057 418.896 532.572C419.172 532.055 419.325 531.478 419.325 530.841C419.325 530.203 419.172 529.626 418.896 529.11C418.621 528.593 418.223 528.199 417.702 527.925C417.182 527.652 416.63 527.5 415.987 527.5C415.344 527.5 414.793 527.652 414.273 527.925C413.752 528.199 413.385 528.624 413.079 529.11C412.803 529.626 412.65 530.203 412.65 530.841C412.65 531.478 412.803 532.055 413.079 532.572C413.354 533.088 413.752 533.483 414.273 533.756C414.793 534.029 415.344 534.181 415.987 534.181C416.63 534.181 417.212 534.06 417.702 533.756ZM414.334 532.693V532.42L414.395 532.389H414.579C414.64 532.389 414.702 532.359 414.732 532.329C414.793 532.268 414.793 532.238 414.793 532.177V529.353C414.793 529.292 414.763 529.231 414.732 529.201C414.671 529.14 414.64 529.14 414.579 529.14H414.395L414.334 529.11V528.836L414.395 528.806H415.987C416.447 528.806 416.784 528.897 417.059 529.11C417.335 529.322 417.457 529.596 417.457 529.96C417.457 530.233 417.365 530.507 417.151 530.689C416.937 530.901 416.692 531.023 416.385 531.053L416.753 531.175L417.457 532.298C417.518 532.389 417.58 532.42 417.671 532.42H417.855L417.886 532.45V532.723L417.855 532.754H416.906L416.845 532.723L415.865 531.084H415.62V532.177C415.62 532.238 415.651 532.298 415.681 532.329C415.743 532.389 415.773 532.389 415.834 532.389H416.018L416.079 532.42V532.693L416.018 532.723H414.395L414.334 532.693ZM415.896 530.719C416.141 530.719 416.355 530.658 416.477 530.507C416.6 530.385 416.692 530.173 416.692 529.93C416.692 529.687 416.63 529.505 416.508 529.353C416.385 529.201 416.202 529.14 415.987 529.14H415.865C415.804 529.14 415.743 529.17 415.712 529.201C415.651 529.262 415.651 529.292 415.651 529.353V530.719H415.896Z" fill="white"/>
<rect x="484" y="344" width="468" height="328" fill="#001E2B"/>
<path d="M573.399 473.838C570.071 469.889 567.206 465.879 566.62 465.046C566.558 464.985 566.466 464.985 566.404 465.046C565.819 465.879 562.953 469.889 559.625 473.838C531.061 510.268 564.124 534.853 564.124 534.853L564.401 535.038C564.648 538.832 565.264 544.292 565.264 544.292H566.497H567.729C567.729 544.292 568.346 538.863 568.592 535.038L568.869 534.822C568.9 534.853 601.963 510.268 573.399 473.838ZM566.497 534.329C566.497 534.329 565.018 533.064 564.617 532.416V532.354L566.404 492.685C566.404 492.562 566.589 492.562 566.589 492.685L568.376 532.354V532.416C567.976 533.064 566.497 534.329 566.497 534.329Z" fill="#00ED64"/>
<path d="M628.374 525.962L614.596 492.552L614.566 492.459H603.846V494.705H605.576C606.101 494.705 606.595 494.92 606.966 495.29C607.337 495.659 607.522 496.151 607.522 496.674L607.213 530.3C607.213 531.346 606.348 532.207 605.298 532.238L603.537 532.268V534.483H613.979V532.268L612.897 532.238C611.847 532.207 610.982 531.346 610.982 530.3V498.612L625.996 534.483C626.212 535.006 626.706 535.345 627.262 535.345C627.818 535.345 628.312 535.006 628.529 534.483L643.202 499.412L643.418 530.3C643.418 531.376 642.554 532.238 641.472 532.268H640.36V534.483H652.593V532.268H650.925C649.875 532.268 649.01 531.376 648.979 530.33L648.886 496.705C648.886 495.628 649.751 494.767 650.802 494.736L652.593 494.705V492.459H642.152L628.374 525.962Z" fill="#00ED64"/>
<path d="M724.44 531.684C724.099 531.346 723.913 530.885 723.913 530.332V513.862C723.913 510.727 722.984 508.269 721.126 506.517C719.298 504.766 716.759 503.875 713.599 503.875C709.17 503.875 705.671 505.657 703.224 509.16C703.193 509.222 703.1 509.252 703.007 509.252C702.914 509.252 702.852 509.191 702.852 509.099L701.706 504.704H699.786L694.861 507.501V509.037H696.131C696.72 509.037 697.215 509.191 697.556 509.498C697.897 509.805 698.082 510.266 698.082 510.912V530.302C698.082 530.855 697.897 531.316 697.556 531.654C697.215 531.992 696.751 532.176 696.193 532.176H694.954V534.419H706.29V532.176H705.051C704.494 532.176 704.029 531.992 703.688 531.654C703.348 531.316 703.162 530.855 703.162 530.302V517.457C703.162 515.828 703.534 514.2 704.215 512.602C704.927 511.035 705.98 509.713 707.374 508.699C708.768 507.685 710.44 507.193 712.361 507.193C714.529 507.193 716.17 507.869 717.192 509.222C718.214 510.574 718.741 512.325 718.741 514.415V530.271C718.741 530.824 718.555 531.285 718.214 531.623C717.874 531.961 717.409 532.145 716.852 532.145H715.613V534.389H726.948V532.145H725.71C725.245 532.207 724.811 532.022 724.44 531.684Z" fill="#00ED64"/>
<path d="M828.007 494.993C824.874 493.324 821.371 492.459 817.593 492.459H802.848V494.715H804.292C804.844 494.715 805.336 494.931 805.828 495.425C806.288 495.889 806.534 496.414 806.534 496.97V530.217C806.534 530.773 806.288 531.298 805.828 531.762C805.367 532.225 804.844 532.472 804.292 532.472H802.848V534.728H817.593C821.371 534.728 824.874 533.863 828.007 532.194C831.14 530.526 833.69 528.054 835.533 524.902C837.376 521.751 838.329 517.95 838.329 513.624C838.329 509.299 837.376 505.529 835.533 502.347C833.659 499.133 831.14 496.661 828.007 494.993ZM832.4 513.563C832.4 517.518 831.693 520.855 830.311 523.543C828.929 526.231 827.085 528.239 824.812 529.537C822.539 530.835 820.02 531.484 817.317 531.484H814.337C813.784 531.484 813.292 531.267 812.801 530.773C812.34 530.309 812.094 529.784 812.094 529.228V497.866C812.094 497.31 812.309 496.816 812.801 496.321C813.262 495.858 813.784 495.611 814.337 495.611H817.317C820.02 495.611 822.539 496.26 824.812 497.557C827.085 498.855 828.929 500.864 830.311 503.552C831.693 506.24 832.4 509.608 832.4 513.563Z" fill="#00ED64"/>
<path d="M873.184 515.818C871.821 514.242 869.189 512.914 866.092 512.203C870.366 510.071 872.564 507.074 872.564 503.212C872.564 501.111 872.007 499.226 870.892 497.619C869.777 496.013 868.198 494.715 866.185 493.819C864.172 492.923 861.819 492.459 859.155 492.459H842.464V494.715H843.795C844.353 494.715 844.848 494.931 845.344 495.425C845.808 495.889 846.056 496.414 846.056 496.97V530.217C846.056 530.773 845.808 531.298 845.344 531.762C844.879 532.225 844.353 532.472 843.795 532.472H842.34V534.728H860.456C863.212 534.728 865.782 534.264 868.105 533.337C870.428 532.41 872.286 531.051 873.617 529.259C874.98 527.467 875.661 525.273 875.661 522.739C875.63 520.02 874.825 517.703 873.184 515.818ZM852.404 530.804C851.94 530.34 851.692 529.815 851.692 529.259V514.335H860.301C863.336 514.335 865.658 515.108 867.269 516.652C868.879 518.197 869.684 520.206 869.684 522.678C869.684 524.161 869.313 525.613 868.631 526.942C867.919 528.301 866.866 529.382 865.442 530.217C864.048 531.051 862.314 531.484 860.301 531.484H853.953C853.395 531.514 852.9 531.267 852.404 530.804ZM851.723 511.153V497.897C851.723 497.341 851.94 496.847 852.435 496.352C852.9 495.889 853.426 495.642 853.984 495.642H858.071C861.013 495.642 863.181 496.383 864.544 497.805C865.906 499.257 866.588 501.111 866.588 503.397C866.588 505.745 865.937 507.63 864.668 509.052C863.398 510.442 861.478 511.153 858.939 511.153H851.723Z" fill="#00ED64"/>
<path d="M681.286 505.845C678.92 504.552 676.277 503.875 673.419 503.875C670.561 503.875 667.887 504.521 665.551 505.845C663.185 507.139 661.311 509.017 659.928 511.388C658.545 513.759 657.838 516.531 657.838 519.61C657.838 522.689 658.545 525.46 659.928 527.831C661.311 530.202 663.185 532.081 665.551 533.374C667.918 534.667 670.561 535.345 673.419 535.345C676.277 535.345 678.95 534.698 681.286 533.374C683.652 532.081 685.527 530.202 686.91 527.831C688.293 525.46 688.999 522.689 688.999 519.61C688.999 516.531 688.293 513.759 686.91 511.388C685.527 509.017 683.652 507.17 681.286 505.845ZM683.56 519.61C683.56 523.397 682.638 526.477 680.794 528.694C678.981 530.911 676.492 532.05 673.419 532.05C670.346 532.05 667.856 530.911 666.043 528.694C664.199 526.477 663.277 523.397 663.277 519.61C663.277 515.822 664.199 512.743 666.043 510.526C667.856 508.309 670.346 507.17 673.419 507.17C676.492 507.17 678.981 508.309 680.794 510.526C682.638 512.774 683.56 515.822 683.56 519.61Z" fill="#00ED64"/>
<path d="M790.198 505.845C787.832 504.552 785.189 503.875 782.331 503.875C779.473 503.875 776.799 504.521 774.464 505.845C772.097 507.139 770.223 509.017 768.84 511.388C767.457 513.759 766.75 516.531 766.75 519.61C766.75 522.689 767.457 525.46 768.84 527.831C770.223 530.202 772.097 532.081 774.464 533.374C776.83 534.667 779.473 535.345 782.331 535.345C785.189 535.345 787.862 534.698 790.198 533.374C792.564 532.081 794.439 530.202 795.822 527.831C797.205 525.46 797.912 522.689 797.912 519.61C797.912 516.531 797.205 513.759 795.822 511.388C794.439 509.017 792.534 507.17 790.198 505.845ZM792.472 519.61C792.472 523.397 791.55 526.477 789.706 528.694C787.893 530.911 785.404 532.05 782.331 532.05C779.258 532.05 776.768 530.911 774.955 528.694C773.111 526.477 772.189 523.397 772.189 519.61C772.189 515.791 773.111 512.743 774.955 510.526C776.768 508.309 779.258 507.17 782.331 507.17C785.404 507.17 787.893 508.309 789.706 510.526C791.519 512.774 792.472 515.822 792.472 519.61Z" fill="#00ED64"/>
<path d="M746.275 503.875C743.799 503.875 741.539 504.401 739.497 505.452C737.454 506.504 735.845 507.927 734.699 509.752C733.554 511.546 732.966 513.557 732.966 515.692C732.966 517.61 733.4 519.373 734.297 520.951C735.164 522.466 736.34 523.735 737.825 524.786L733.399 530.788C732.842 531.53 732.78 532.52 733.183 533.324C733.616 534.16 734.421 534.654 735.349 534.654H736.618C735.38 535.49 734.39 536.48 733.709 537.655C732.904 538.985 732.502 540.377 732.502 541.8C732.502 544.461 733.678 546.657 735.999 548.297C738.29 549.936 741.508 550.771 745.563 550.771C748.379 550.771 751.072 550.307 753.517 549.41C755.993 548.513 758.005 547.183 759.49 545.451C761.007 543.718 761.78 541.615 761.78 539.202C761.78 536.665 760.852 534.871 758.685 533.139C756.828 531.685 753.919 530.911 750.298 530.911H737.918C737.887 530.911 737.856 530.88 737.856 530.88C737.856 530.88 737.825 530.819 737.856 530.788L741.075 526.457C741.942 526.859 742.746 527.106 743.458 527.261C744.201 527.416 745.037 527.478 745.965 527.478C748.565 527.478 750.917 526.952 752.96 525.9C755.002 524.848 756.643 523.425 757.819 521.6C758.995 519.806 759.583 517.795 759.583 515.661C759.583 513.372 758.469 509.195 755.436 507.061C755.436 507.03 755.467 507.03 755.467 507.03L762.121 507.772V504.71H751.474C749.803 504.153 748.07 503.875 746.275 503.875ZM749.989 523.209C748.812 523.827 747.544 524.168 746.275 524.168C744.201 524.168 742.375 523.425 740.827 521.971C739.28 520.517 738.506 518.383 738.506 515.661C738.506 512.939 739.28 510.804 740.827 509.35C742.375 507.896 744.201 507.154 746.275 507.154C747.574 507.154 748.812 507.463 749.989 508.113C751.165 508.731 752.124 509.69 752.898 510.959C753.641 512.227 754.043 513.805 754.043 515.661C754.043 517.548 753.672 519.125 752.898 520.363C752.155 521.631 751.165 522.59 749.989 523.209ZM741.601 534.624H749.989C752.31 534.624 753.795 535.088 754.786 536.077C755.776 537.067 756.271 538.398 756.271 539.944C756.271 542.202 755.374 544.059 753.579 545.451C751.784 546.843 749.37 547.554 746.398 547.554C743.799 547.554 741.632 546.966 740.054 545.853C738.475 544.739 737.671 543.038 737.671 540.872C737.671 539.511 738.042 538.243 738.785 537.129C739.528 536.016 740.425 535.211 741.601 534.624Z" fill="#00ED64"/>
<path d="M881.936 534.211C881.324 533.877 880.865 533.391 880.497 532.815C880.16 532.207 879.977 531.569 879.977 530.871C879.977 530.173 880.16 529.505 880.497 528.928C880.834 528.32 881.324 527.865 881.936 527.531C882.548 527.197 883.222 527.014 883.987 527.014C884.753 527.014 885.426 527.197 886.039 527.531C886.651 527.865 887.11 528.351 887.478 528.928C887.815 529.535 887.998 530.173 887.998 530.871C887.998 531.569 887.815 532.238 887.478 532.815C887.141 533.422 886.651 533.877 886.039 534.211C885.426 534.545 884.753 534.728 883.987 534.728C883.253 534.728 882.548 534.545 881.936 534.211ZM885.702 533.756C886.223 533.483 886.59 533.057 886.896 532.572C887.172 532.055 887.325 531.478 887.325 530.841C887.325 530.203 887.172 529.626 886.896 529.11C886.621 528.594 886.223 528.199 885.702 527.925C885.182 527.652 884.63 527.5 883.987 527.5C883.344 527.5 882.793 527.652 882.273 527.925C881.752 528.199 881.385 528.624 881.079 529.11C880.803 529.626 880.65 530.203 880.65 530.841C880.65 531.478 880.803 532.055 881.079 532.572C881.354 533.088 881.752 533.483 882.273 533.756C882.793 534.029 883.344 534.181 883.987 534.181C884.63 534.181 885.212 534.029 885.702 533.756ZM882.334 532.693V532.42L882.395 532.389H882.579C882.64 532.389 882.702 532.359 882.732 532.329C882.793 532.268 882.793 532.238 882.793 532.177V529.353C882.793 529.292 882.763 529.231 882.732 529.201C882.671 529.14 882.64 529.14 882.579 529.14H882.395L882.334 529.11V528.836L882.395 528.806H883.987C884.447 528.806 884.784 528.897 885.059 529.11C885.335 529.322 885.457 529.596 885.457 529.96C885.457 530.233 885.365 530.507 885.151 530.689C884.937 530.901 884.692 531.023 884.385 531.053L884.753 531.175L885.457 532.298C885.518 532.389 885.58 532.42 885.671 532.42H885.855L885.886 532.45V532.723L885.855 532.754H884.906L884.845 532.723L883.865 531.084H883.62V532.177C883.62 532.238 883.651 532.298 883.681 532.329C883.743 532.389 883.773 532.389 883.834 532.389H884.018L884.079 532.42V532.693L884.018 532.723H882.395L882.334 532.693ZM883.896 530.719C884.141 530.719 884.355 530.658 884.477 530.507C884.6 530.385 884.692 530.173 884.692 529.93C884.692 529.687 884.63 529.505 884.508 529.353C884.385 529.201 884.202 529.14 883.987 529.14H883.865C883.804 529.14 883.743 529.17 883.712 529.201C883.651 529.262 883.651 529.292 883.651 529.353V530.719H883.896Z" fill="#00ED64"/>
</svg>
